<svg width="117" height="28" viewBox="0 0 117 28" fill="none" xmlns="http://www.w3.org/2000/svg">
<g opacity="0.3" clip-path="url(#clip0_4_159)">
<path d="M27.3664 26.1392H20.91L18.9348 21.335H8.17458L6.3751 26.1392H0.0250854L9.7264 1.87487H16.6765L27.3664 26.1392ZM13.2899 7.67292L9.76205 17.1007H17.1709L13.2899 7.67292ZM50.8194 1.87487H56.0406V26.1392H50.0424V10.983L43.5511 18.5959H42.6342L36.1433 10.983V26.1389H30.1452V1.87487H35.3664L43.0923 10.8759L50.8194 1.87487ZM71.2384 1.87487C80.0225 1.87487 84.5376 7.38866 84.5376 14.0417C84.5376 21.0147 80.1635 26.1392 70.5677 26.1392H60.6188V1.87487H71.2384ZM66.6165 21.692H70.5318C76.5646 21.692 78.3641 17.5641 78.3641 14.0057C78.3641 9.84275 76.1411 6.32151 70.4612 6.32151H66.6163V21.692H66.6165ZM96.4706 7.62816L88.9076 0H116.44V27.7664L108.877 20.1391V7.62816H96.4706ZM96.4617 9.1567L88.6752 17.0086V28H99.573L107.359 20.1481H96.4617V9.1567Z" fill="#202430"/>
</g>
<defs>
<clipPath id="clip0_4_159">
<rect width="116.465" height="28" fill="white"/>
</clipPath>
</defs>
</svg>
