<svg width="109" height="32" viewBox="0 0 109 32" fill="none" xmlns="http://www.w3.org/2000/svg">
<g opacity="0.3">
<path d="M10.8264 31.6075C10.2508 31.6075 9.96234 31.3595 9.96234 30.8611V30.7045C9.96234 30.3915 10.2256 29.9196 10.751 29.2911C11.3015 28.6374 11.5767 27.9824 11.5767 27.3287V6.68092H9.58657C9.01095 6.68092 8.48559 6.93014 8.00929 7.42737C7.56375 7.91681 7.19637 8.47283 6.92027 9.07558C6.66896 9.65107 6.35781 10.188 5.98204 10.6853C5.60627 11.1825 5.2305 11.4317 4.85472 11.4317H4.21687C3.51559 11.4317 3.20205 11.0513 3.27744 10.2928L4.02898 4.95325C4.10318 4.143 4.52922 3.73726 5.30589 3.73726H24.6091C25.3594 3.73726 25.7854 4.143 25.8848 4.95325L26.6746 10.3313C26.7237 10.672 26.6614 10.9465 26.4855 11.156C26.3108 11.339 26.0607 11.4305 25.7352 11.4305H25.0961C24.7215 11.4305 24.3458 11.1825 23.97 10.6841C23.5942 10.1856 23.2687 9.65107 22.9935 9.07558C22.7182 8.4736 22.3425 7.9246 21.8674 7.42617C21.3911 6.93014 20.8657 6.68092 20.2901 6.68092H18.337V27.3287C18.337 27.9824 18.6003 28.6374 19.1257 29.2911C19.6762 29.9196 19.9514 30.3903 19.9514 30.7045V30.8611C19.9514 31.3595 19.6522 31.6075 19.0503 31.6075H10.8264ZM42.621 27.3287C42.6963 27.9571 42.834 28.4676 43.0338 28.8601C43.26 29.2261 43.4718 29.4621 43.6729 29.5668C43.8979 29.6715 44.0977 29.8016 44.2736 29.9593C44.4483 30.1158 44.5369 30.312 44.5369 30.548C44.5369 31.4113 43.1224 31.8435 40.2933 31.8435C39.1409 31.8435 38.2768 31.699 37.7012 31.4101C37.1507 31.1235 36.8001 30.6395 36.6505 29.9593C35.6979 31.3198 34.1087 32 31.8804 32C29.7777 32 28.0628 31.4895 26.7344 30.4686C25.4336 29.4488 24.7838 27.9704 24.7838 26.0332C24.7838 24.149 25.4336 22.6838 26.7344 21.6364C28.0377 20.5649 29.6401 20.0279 31.5429 20.0279C33.0196 20.0279 34.2834 20.3542 35.3365 21.0091V20.8911C35.0852 18.3002 34.798 16.5473 34.4713 15.6299C34.1721 14.7149 33.5701 14.2574 32.669 14.2574C32.0934 14.2574 31.6302 14.5319 31.2796 15.0809C30.9257 15.6383 30.6596 16.2475 30.491 16.8868C30.3357 17.5516 30.0269 18.1703 29.5898 18.6927C29.1387 19.2429 28.5379 19.5174 27.7876 19.5174C27.0109 19.5174 26.373 19.2815 25.8728 18.8107C25.3965 18.34 25.1583 17.7248 25.1583 16.9663C25.1583 15.4481 25.8848 14.3091 27.3364 13.5507C28.788 12.7657 30.5663 12.3732 32.669 12.3732C35.1725 12.3732 37.2381 13.092 38.8656 14.5319C40.5171 15.9453 41.4948 17.868 41.7952 20.3024L42.621 27.3287ZM33.9459 29.9978C34.5215 29.9978 34.9847 29.7101 35.3353 29.1346C35.7111 28.5591 35.8978 27.9042 35.8978 27.1721L35.7482 25.3662C35.4981 23.1943 34.7226 22.1083 33.4205 22.1083C32.8449 22.1083 32.3818 22.3563 32.0311 22.8548C31.6805 23.3243 31.5046 23.966 31.5046 24.7775C31.5046 26.2427 31.7176 27.4864 32.1436 28.5061C32.5936 29.5006 33.1956 29.999 33.9459 29.999V29.9978ZM46.1812 31.6075C45.6044 31.6075 45.3172 31.3595 45.3172 30.8611V30.7045C45.3172 30.3915 45.5541 29.9196 46.0304 29.2911C46.5307 28.6374 46.7808 27.9824 46.7808 27.3287V9.38981C46.7808 8.70958 46.5307 8.05463 46.0304 7.42737C45.5541 6.77242 45.3172 6.31492 45.3172 6.05246V5.89595C45.3172 5.607 45.5924 5.30601 46.1429 4.99298L51.813 2.08785C52.3396 1.85308 52.7524 1.83984 53.0528 2.04933C53.3783 2.23233 53.5411 2.52007 53.5411 2.91256V27.3287C53.5411 27.9824 53.8163 28.6374 54.3668 29.2911C54.9173 29.9196 55.1925 30.3903 55.1925 30.7045V30.8611C55.1925 31.3595 54.8934 31.6075 54.2926 31.6075H46.1812ZM76.7767 28.3099C76.9023 28.4929 77.2781 28.8336 77.904 29.3308C78.555 29.8281 78.8805 30.2856 78.8805 30.7045V30.8611C78.8805 31.3595 78.5933 31.6075 78.0165 31.6075H70.1301C69.5544 31.6075 69.266 31.3462 69.266 30.8225V30.7045C69.266 30.3915 69.4539 30.0111 69.8297 29.5656C70.2055 29.0961 70.2808 28.6759 70.0547 28.3099L66.7505 23.1678L64.8717 24.9737V27.3287C64.8717 27.9824 65.1469 28.6374 65.6986 29.2911C66.2742 29.9196 66.5626 30.3903 66.5626 30.7045V30.8611C66.5626 31.3595 66.2622 31.6075 65.6615 31.6075H57.5489C56.9481 31.6075 56.6478 31.3595 56.6478 30.8611V30.7045C56.6478 30.3915 56.8991 29.9196 57.3993 29.2911C57.8995 28.6374 58.1508 27.9824 58.1508 27.3287V9.38981C58.1508 8.70958 57.8493 8.05463 57.2485 7.42737C56.6478 6.77242 56.3474 6.31492 56.3474 6.05246V5.89595C56.3474 5.607 56.6226 5.30601 57.1731 4.99298L63.1843 2.08785C63.7096 1.87837 64.1225 1.86633 64.4229 2.04933C64.7233 2.23233 64.874 2.52007 64.874 2.91256V21.5581L69.9434 17.0048C70.2437 16.7953 70.3562 16.534 70.282 16.2198C70.2362 15.9149 70.106 15.6291 69.9063 15.3951C69.7107 15.1041 69.5104 14.8163 69.3055 14.5319C69.1045 14.2189 69.0051 13.9419 69.0051 13.7072V13.5507C69.0051 13.0269 69.2924 12.7657 69.868 12.7657H75.8025C76.377 12.7657 76.6654 13.0137 76.6654 13.5121V13.6686C76.6654 13.9817 76.4906 14.3091 76.14 14.6499C75.7894 14.9629 75.2891 15.3433 74.6381 15.7876C74.1035 16.1346 73.6009 16.529 73.1362 16.9663L70.732 19.2815L76.7767 28.3099ZM84.3495 10.4493C83.0726 10.4493 82.0339 10.0833 81.2321 9.35008C80.4303 8.59159 80.0306 7.6489 80.0306 6.52441C80.0306 5.39872 80.4315 4.46927 81.2321 3.73726C82.0339 2.97878 83.0726 2.59833 84.3495 2.59833C85.6013 2.59833 86.6281 2.97757 87.4287 3.73726C88.2305 4.46927 88.6302 5.39872 88.6302 6.52441C88.6302 7.6489 88.2305 8.59159 87.4287 9.35008C86.6269 10.0833 85.6013 10.4493 84.3495 10.4493ZM80.3309 31.6075C79.7302 31.6075 79.4298 31.3595 79.4298 30.8611V30.7045C79.4298 30.3915 79.6811 29.9063 80.1814 29.2526C80.6816 28.5988 80.9317 27.9439 80.9317 27.2901V19.8317C80.9317 19.1514 80.6816 18.4965 80.1814 17.8692C79.6799 17.2143 79.4298 16.7688 79.4298 16.5328V16.3763C79.4298 16.0633 79.717 15.7623 80.2938 15.4734L85.9639 12.5694C86.4905 12.3335 86.9034 12.307 87.2037 12.4912C87.5041 12.6742 87.6549 12.9752 87.6549 13.3941V27.2901C87.6549 27.9439 87.9301 28.5976 88.4806 29.2526C89.0563 29.9063 89.3447 30.3903 89.3447 30.7045V30.8611C89.3447 31.3583 89.0311 31.6075 88.4052 31.6075H80.3309ZM98.7533 32C96.8505 32 95.3498 31.3715 94.2477 30.1158C93.1706 28.8601 92.6321 27.0674 92.6321 24.7378V15.4348H91.2056C90.9709 15.4403 90.7429 15.356 90.5677 15.1989C90.4156 15.0109 90.3353 14.7743 90.3415 14.5319V13.6686C90.3415 13.0667 90.63 12.7657 91.2056 12.7657H91.9188C93.0713 12.7657 94.061 12.4117 94.8867 11.7062C95.7124 10.9718 96.251 10.005 96.5011 8.80108C96.6267 8.12085 96.9642 7.78013 97.5147 7.78013H98.3787C99.0549 7.78013 99.3924 8.12085 99.3924 8.80108V12.7657H103.261C103.511 12.7657 103.711 12.8572 103.862 13.0402C104.037 13.1967 104.125 13.4062 104.125 13.6686V14.5319C104.128 14.6551 104.106 14.7775 104.061 14.892C104.015 15.0066 103.948 15.1109 103.862 15.1989C103.784 15.2782 103.69 15.3402 103.587 15.3808C103.483 15.4215 103.372 15.4399 103.261 15.4348H99.3924V24.8557C99.3924 25.5095 99.5551 26.0332 99.8806 26.4257C100.206 26.7929 100.607 26.9759 101.082 26.9759C102.159 26.9759 102.985 26.4919 103.562 25.5227C103.736 25.288 103.936 25.1567 104.163 25.1303C104.387 25.0785 104.575 25.1182 104.725 25.2482C104.901 25.3795 104.988 25.5613 104.988 25.7984C104.988 27.4466 104.426 28.8986 103.298 30.1555C102.197 31.3848 100.682 32 98.7533 32Z" fill="#202430"/>
</g>
</svg>
