<svg width="183" height="24" viewBox="0 0 183 24" fill="none" xmlns="http://www.w3.org/2000/svg">
<g opacity="0.3" clip-path="url(#clip0_4_154)">
<path d="M156.07 9.52357V23.986H160.658V14.3444H177.438V23.986H182.027V9.52357H156.07ZM160.134 4.83484H177.832C180.322 4.37257 182.092 2.12727 182.617 0.0140381H155.349C155.873 2.12727 157.708 4.30654 160.134 4.83484ZM142.108 23.986C144.402 22.9954 145.648 21.2784 146.172 19.2973H125.524V0.0800765H120.87V23.986H142.108ZM86.4578 4.7688H102.845C105.336 4.04238 107.368 2.12727 107.892 0.0800765H81.935V14.2123H103.172V19.1652H86.5233C83.9014 19.8916 81.6728 21.6746 80.5584 23.986H107.761V9.52357H86.5233L86.4578 4.7688ZM46.0802 4.83484H63.7782C66.269 4.37257 68.1043 2.12727 68.5632 0.0140381H41.2297C41.7541 2.12727 43.5894 4.30654 46.0802 4.83484ZM46.0802 14.2783H63.7782C66.269 13.8161 68.1043 11.5708 68.5632 9.45753H41.2297C41.7541 11.5708 43.5894 13.75 46.0802 14.2783ZM46.0802 23.986H63.7782C66.269 23.5237 68.1043 21.2784 68.5632 19.1652H41.2297C41.7541 21.2784 43.5894 23.5237 46.0802 23.986Z" fill="#202430"/>
<path d="M0 0.0800765C0.524384 2.19331 2.35973 4.30654 4.785 4.83484H12.2575L12.6508 4.96692V23.9199H17.3047V4.96692L17.6979 4.83484H25.1704C27.6612 4.17446 29.431 2.19331 29.9554 0.0800765V0.0140381L0 0.0800765Z" fill="#202430"/>
</g>
<defs>
<clipPath id="clip0_4_154">
<rect width="182.682" height="24" fill="white"/>
</clipPath>
</defs>
</svg>
